<svg xmlns="http://www.w3.org/2000/svg" version="1.1" xmlns:xlink="http://www.w3.org/1999/xlink" xmlns:svgjs="http://svgjs.dev/svgjs" width="1920" height="1080" preserveAspectRatio="none" viewBox="0 0 1920 1080"><g mask="url(&quot;#SvgjsMask1093&quot;)" fill="none"><rect width="1920" height="1080" x="0" y="0" fill="#0e2a47"></rect><path d="M0,620.618C150.256,612.796,309.121,759.18,438.016,681.566C566.141,604.416,539.371,409.74,586.133,267.678C626.928,143.744,691.997,30.47,695.271,-99.965C698.979,-247.721,715.414,-425.725,606.031,-525.129C495.356,-625.708,314.779,-541.699,169.618,-577.665C33.57,-611.373,-79.078,-766.803,-213.838,-728.264C-348.451,-689.767,-369.732,-505.591,-459.144,-397.851C-545.946,-293.256,-701.363,-237.753,-730.992,-105.101C-760.831,28.492,-651.379,148.133,-610.254,278.694C-562.018,431.829,-608.404,650.271,-468.339,728.749C-325.675,808.684,-163.311,629.12,0,620.618" fill="#0a1d30"></path><path d="M1920 1747.076C2054.399 1757.784 2185.874 1737.399 2312.19 1690.26 2464.584 1633.3890000000001 2628.411 1578.829 2723.833 1447.098 2827.006 1304.667 2874.496 1120.436 2851.2309999999998 946.109 2827.867 771.0419999999999 2716.9610000000002 622.98 2596.6 493.72299999999996 2479.427 367.89 2336.574 271.29600000000005 2173.137 217.89499999999998 2006.173 163.34199999999998 1816.335 111.38300000000004 1657.785 186.97799999999995 1502.411 261.05899999999997 1449.595 450.148 1368.066 601.746 1303.085 722.5740000000001 1267.133 848.613 1230.8110000000001 980.91 1188.923 1133.481 1066.287 1296.141 1138.8139999999999 1436.7559999999999 1211.991 1578.633 1417.657 1571.874 1566.017 1630.809 1683.826 1677.608 1793.636 1737.008 1920 1747.076" fill="#13375e"></path></g><defs><mask id="SvgjsMask1093"><rect width="1920" height="1080" fill="#ffffff"></rect></mask></defs></svg>